<?xml version="1.0" standalone="no"?>
<!DOCTYPE svg PUBLIC "-//W3C//DTD SVG 20010904//EN"
 "http://www.w3.org/TR/2001/REC-SVG-20010904/DTD/svg10.dtd">
<svg version="1.0" xmlns="http://www.w3.org/2000/svg"
 width="1080.000000pt" height="1080.000000pt" viewBox="0 0 1080.000000 1080.000000"
 preserveAspectRatio="xMidYMid meet">
<metadata>
Created by potrace 1.14, written by Peter Selinger 2001-2017
</metadata>
<g transform="translate(0.000000,1080.000000) scale(0.100000,-0.100000)"
fill="#000000" stroke="none">
<path d="M715 10762 c-289 -155 -544 -413 -685 -692 l-30 -59 0 -4611 0 -4611
30 -59 c143 -282 418 -557 700 -700 l59 -30 4611 0 4611 0 59 30 c282 143 557
418 700 700 l30 59 0 4611 0 4611 -30 59 c-143 282 -418 557 -700 700 l-59 30
-4613 0 -4613 -1 -70 -37z m5065 -597 c913 -140 1655 -379 2229 -720 60 -36
112 -65 115 -65 3 0 7 170 8 378 l3 377 508 3 507 2 0 -2185 0 -2185 -510 0
-510 0 0 1159 0 1159 -77 65 c-393 326 -855 585 -1343 752 -52 18 -103 36
-112 40 -17 7 -18 -73 -18 -1584 l0 -1591 -505 0 -505 0 0 2215 0 2215 23 -5
c12 -3 96 -16 187 -30z m-750 -555 l0 -520 -1169 -2 -1170 -3 48 -110 c372
-857 929 -1483 1739 -1954 117 -68 435 -231 515 -264 l37 -16 0 -525 c0 -425
-2 -526 -13 -526 -17 0 -292 104 -418 158 -882 377 -1620 949 -2162 1676 -507
681 -831 1482 -962 2381 -14 94 -25 182 -25 198 l0 27 1790 0 1790 0 0 -520z
m225 -4697 c-113 -805 -371 -1416 -881 -2087 -50 -66 -80 -114 -75 -120 4 -6
37 -49 73 -96 438 -570 742 -1239 904 -1987 l4 -23 -1805 0 -1805 0 0 2180 0
2180 1796 0 1795 0 -6 -47z m4063 -80 c-108 -744 -380 -1372 -870 -2010 -43
-55 -78 -104 -78 -107 0 -4 31 -46 69 -94 174 -221 355 -511 495 -795 125
-254 174 -370 256 -616 64 -191 160 -547 160 -592 0 -19 -31 -19 -1800 -19
l-1800 0 0 2180 0 2180 1793 0 1794 0 -19 -127z"/>
<path d="M2680 3319 c0 -485 3 -609 13 -603 28 18 230 163 332 240 407 306
662 580 854 917 l32 57 -615 0 -616 0 0 -611z"/>
<path d="M3475 2069 c-126 -100 -405 -272 -600 -373 l-90 -46 492 0 491 0 -74
161 c-81 176 -124 257 -151 281 -17 15 -22 13 -68 -23z"/>
<path d="M6760 3319 l0 -610 33 22 c591 413 906 716 1131 1090 31 50 56 96 56
101 0 4 -274 8 -610 8 l-610 0 0 -611z"/>
<path d="M7544 2064 c-120 -95 -375 -254 -569 -356 l-110 -58 493 0 493 0 -24
48 c-14 26 -61 121 -105 212 -44 91 -89 173 -99 183 -19 16 -22 15 -79 -29z"/>
</g>
</svg>
